# xmcd CD database file
#
# Track frame offsets:
#	150
#	19160
#	36367
#	48023
#	66127
#	89304
#	111190
#	129158
#	155602
#	171616
#	190882
#	204466
#	222722
#	249723
#	268698
#
# Disc length: 3913 seconds
#
# Revision: 0
# Processed by: cddbd v1.5.2PL0 Copyright (c) Steve Scherf et al.
# Submitted via: CDex 1.70beta2
#
DISCID=de0f470f
DTITLE=Aryeh Frankfurter - The Enchanted Way
DYEAR=1900
DGENRE=New Age
TTITLE0=Claire de Lune
TTITLE1=Morning has Broken
TTITLE2=Gymnopedie #1
TTITLE3=Sleeper's Awake
TTITLE4=Moonlight Sonata
TTITLE5=Pachelbel's Canon in D
TTITLE6=Greensleeves
TTITLE7=Danny Boy
TTITLE8=Fur Elise
TTITLE9=Franz Schubert's Ave Maria
TTITLE10=Scarborough Faire
TTITLE11=Jesu Joy of Man's Desiring
TTITLE12=Bach-Gounod's Ave Maria
TTITLE13=She May Safely Graze
TTITLE14=Amazing Grace
EXTD=
EXTT0=
EXTT1=
EXTT2=
EXTT3=
EXTT4=
EXTT5=
EXTT6=
EXTT7=
EXTT8=
EXTT9=
EXTT10=
EXTT11=
EXTT12=
EXTT13=
EXTT14=
PLAYORDER=
